<svg id="emoticon" image-rendering="optimizeSpeed" baseProfile="basic" version="1.1" preserveAspectRatio="xMidYMid slice" x="0px" y="0px" width="0" height="0" xmlns="http://www.w3.org/2000/svg" viewBox="0 0 0 0" xmlns:xlink="http://www.w3.org/1999/xlink">
<defs>
	<linearGradient id="Svg_gradient_head" gradientUnits="userSpaceOnUse" x1="62.35" y1="10.975" x2="62.35" y2="103.425" spreadMethod="pad">
		<stop offset="0%" stop-color="#FFF" stop-opacity=".298"/>
		<stop offset="100%" stop-color="#FFF" stop-opacity="0"/>
	</linearGradient>
	<g id="svg_emoti_0" class="normal" transform="translate(-61.95 -62.75)">
		<path fill="#37C2D1" stroke="none" d="M74.5 40.05L40.2 70.5 83.75 85 74.5 40.05Z"/>
		<path fill="#37C2D1" stroke="none" d="M123.95 61.95Q123.95 36.25 105.8 18.15 87.65 0 62 0 36.35 0 18.2 18.15 .05 36.25 .05 61.95 .05 87.6 18.2 105.75 36.35 123.85 62 123.85 87.65 123.85 105.8 105.75 123.95 87.6 123.95 61.95Z"/>
		<path fill="url(#Svg_gradient_head)" stroke="none" d="M97.1 87.3Q111.5 73.9 111.5 54.95 111.5 36 97.1 22.55 82.65 9.15 62.3 9.15 41.9 9.15 27.5 22.55 13.05 36 13.05 54.95 13.05 73.9 27.5 87.3 41.9 100.7 62.3 100.7 82.65 100.7 97.1 87.3Z"/>
		<path fill="#37C2D1" stroke="none" d="M113.2 80.05L78.9 110.5 122.45 125 113.2 80.05Z"/>
		<path fill="#FFF" stroke="none" d="M44.25 45.35Q43.2 44.35 41.75 44.35L21.9 44.35Q20.5 44.35 19.45 45.35 18.45 46.4 18.45 47.8L18.45 89.45Q18.45 90.9 19.45 91.9 20.5 92.9 21.9 92.9L41.75 92.9Q43.2 92.9 44.25 91.9 45.25 90.9 45.25 89.45L45.25 47.8Q45.25 46.35 44.25 45.35Z"/>
		<path fill="#FFF" stroke="none" d="M102.7 46.25L101.45 44.3 56.1 44.3 56.1 92.85 92.5 92.85 92.5 92.8 91.65 90.05 94.05 80.6 94.05 80.55 97.05 68.6 97.05 68.55 100.1 56.6 100.1 56.5 102.7 46.25Z"/>
		<path fill="#FFF" stroke="none" d="M86.35 86.65Q86.35 89.2 88.15 91.05 89.95 92.85 92.5 92.85 95.1 92.85 96.9 91.05 98.7 89.2 98.7 86.65 98.7 84.1 96.9 82.3 95.1 80.45 92.5 80.45 89.95 80.45 88.15 82.3 86.35 84.1 86.35 86.65Z"/>
		<path fill="#FFF" stroke="none" d="M99.95 79.05Q101.75 77.2 101.75 74.65 101.75 72.05 99.95 70.25 98.15 68.45 95.55 68.45 93 68.45 91.2 70.25 89.35 72.05 89.35 74.65 89.35 77.2 91.2 79.05 93 80.85 95.55 80.85 98.15 80.85 99.95 79.05Z"/>
		<path fill="#FFF" stroke="none" d="M102.95 67.05Q104.75 65.2 104.75 62.65 104.75 60.05 102.95 58.25 101.15 56.45 98.55 56.45 96 56.45 94.2 58.25 92.35 60.05 92.35 62.65 92.35 65.2 94.2 67.05 96 68.85 98.55 68.85 101.15 68.85 102.95 67.05Z"/>
		<path fill="#FFF" stroke="none" d="M101.55 44.35Q99 44.35 97.2 46.15 95.35 47.95 95.35 50.55 95.35 53.1 97.2 54.95 99 56.75 101.55 56.75 104.15 56.75 105.95 54.95 107.75 53.1 107.75 50.55 107.75 47.95 105.95 46.15 104.15 44.35 101.55 44.35Z"/>
		<path fill="#FFF" stroke="none" d="M83.85 27L84.25 26.05 72.75 21.1 72.75 20.7 53.15 45.25 56.1 51.3 69.6 59.45 83.8 27.05 83.85 27Z"/>
		<path fill="#FFF" stroke="none" d="M82.75 28.45Q84.6 26.55 84.6 23.9 84.6 21.3 82.75 19.4 80.9 17.55 78.25 17.55 75.6 17.55 73.7 19.4 71.85 21.25 71.85 23.9 71.85 26.55 73.7 28.45 75.6 30.3 78.25 30.3 80.9 30.3 82.75 28.45Z"/>
		<path fill="#FFF" stroke="none" d="M66.05 47.8Q66.05 46.4 65.05 45.35 64.05 44.35 62.6 44.35L55.35 44.35Q53.9 44.35 52.85 45.35 51.85 46.35 51.85 47.8L51.85 89.4Q51.85 90.85 52.85 91.9 53.9 92.9 55.35 92.9L62.6 92.9Q64.05 92.9 65.05 91.9 66.05 90.85 66.05 89.4L66.05 47.8Z"/>
	</g>
	<g id="svg_emoti_1" class="love"  transform="translate(-61.95 -62.75)">
		<path fill="#FC5B5B" stroke="none" d="M112.8 79.3L78.5 109.75 122 124.25 112.8 79.3Z"/>
		<path fill="#FC5B5B" stroke="none" d="M123.95 62Q123.95 36.35 105.8 18.2 87.65 .05 62 .05 36.3 .05 18.2 18.2 .05 36.35 .05 62 .05 87.65 18.2 105.8 36.3 123.95 62 123.95 87.65 123.95 105.8 105.8 123.95 87.65 123.95 62Z"/>
		<path fill="url(#Svg_gradient_head)" stroke="none" d="M97 86.65Q111.4 73.25 111.4 54.3 111.4 35.35 97 21.9 82.55 8.5 62.2 8.5 41.8 8.5 27.4 21.9 12.95 35.35 12.95 54.3 12.95 73.25 27.4 86.65 41.8 100.05 62.2 100.05 82.55 100.05 97 86.65Z"/>
		<path fill="#FFF" stroke="none" d="M94.45 70.25Q100.95 63.3 100.3 53.75 99.7 45.6 93.8 39.8 87.95 34 79.8 33.5 75.05 33.2 70.65 34.9 66.45 36.55 63.15 39.75 62.65 40.25 62 40.25 61.3 40.25 60.8 39.75 57.55 36.55 53.35 34.9 48.95 33.2 44.2 33.5 36.05 34 30.15 39.8 24.25 45.6 23.7 53.75 23.05 63.3 29.55 70.25 36 77.15 45.5 77.15 50.35 77.15 54.7 75.15 58.9 73.15 62 69.65 65.05 73.15 69.3 75.15 73.65 77.15 78.5 77.15 87.95 77.15 94.45 70.25Z"/>
		<path fill="#FFF" stroke="none" d="M84 81.65Q95.8 70.95 98.55 63.8L61.9 67.35 25.3 63.8Q28 70.95 39.8 81.65 47.5 88.6 57.75 95.95 59.65 97.3 61.95 97.3 64.25 97.3 66.1 95.95 76.3 88.6 84 81.65Z"/>
	</g>
	<g id="svg_emoti_2" class="happy"  transform="translate(-61.95 -62.75)">
		<path fill="#FFCF24" stroke="none" d="M114.35 82.25L80.05 112.7 123.55 127.2 114.35 82.25Z"/>
		<path fill="#FFCF24" stroke="none" d="M123.95 62Q123.95 36.35 105.8 18.2 87.7 .05 62 .05 36.35 .05 18.2 18.2 .05 36.35 .05 62 .05 87.65 18.2 105.8 36.35 123.95 62 123.95 87.7 123.95 105.8 105.8 123.95 87.65 123.95 62Z"/>
		<path fill="url(#Svg_gradient_head)" stroke="none" d="M97.25 87.4Q111.65 73.95 111.65 55 111.65 36.05 97.25 22.65 82.8 9.25 62.4 9.25 42 9.25 27.6 22.65 13.15 36.05 13.15 55 13.15 73.95 27.6 87.4 42 100.8 62.4 100.8 82.8 100.8 97.25 87.4Z"/>
		<path fill="#D39924" stroke="none" d="M89.4 75.85Q87.75 76.25 86.85 77.65 82.75 84.05 76.2 87.7 69.6 91.3 62 91.3 54.45 91.3 47.85 87.7 41.3 84.05 37.2 77.65 36.3 76.25 34.65 75.85 33.05 75.5 31.6 76.4 30.2 77.3 29.8 78.95 29.45 80.55 30.35 81.95 35.55 90.15 43.95 94.8 52.3 99.4 62 99.4 71.7 99.4 80.1 94.8 88.5 90.15 93.65 81.95 94.55 80.55 94.2 78.95 93.8 77.3 92.4 76.4 91 75.5 89.4 75.85Z"/>
		<path fill="#D39924" stroke="none" d="M45.6 48.15Q46.5 48.85 47.7 48.85L48.6 48.75Q50 48.4 50.7 47.15 51.45 45.9 51.05 44.5 49.95 40.35 46.5 37.7 43.1 35.1 38.8 35.1 34.5 35.1 31.1 37.7 27.7 40.35 26.6 44.5 26.25 45.9 26.95 47.15 27.65 48.4 29.05 48.75 30.45 49.15 31.7 48.4 32.95 47.7 33.3 46.3 33.8 44.4 35.3 43.25 36.85 42.05 38.8 42.05 40.75 42.05 42.3 43.25 43.8 44.4 44.35 46.3 44.65 47.45 45.6 48.15Z"/>
		<path fill="#D39924" stroke="none" d="M88.6 43.25Q90.15 44.45 90.65 46.3 90.95 47.45 91.9 48.15 92.8 48.85 94 48.85L94.9 48.75Q96.3 48.4 97 47.15 97.75 45.9 97.35 44.5 96.25 40.35 92.85 37.7 89.4 35.1 85.1 35.1 80.8 35.1 77.4 37.7 74 40.35 72.9 44.5 72.55 45.9 73.25 47.15 73.95 48.4 75.35 48.75 76.75 49.15 78 48.4 79.25 47.7 79.6 46.3 80.1 44.45 81.65 43.25 83.2 42.05 85.1 42.05 87.05 42.05 88.6 43.25Z"/>
	</g>
	<g id="svg_emoti_3" class="normal"  transform="translate(-61.95 -62.75)">
		<path fill="#FFCF24" stroke="none" d="M113.15 81.85L78.85 112.3 122.4 126.75 113.15 81.85Z"/>
		<path fill="#FFCF24" stroke="none" d="M123.95 62Q123.95 36.35 105.8 18.2 87.65 .05 62 .05 36.35 .05 18.2 18.2 .05 36.35 .05 62 .05 87.65 18.2 105.8 36.35 123.95 62 123.95 87.65 123.95 105.8 105.8 123.95 87.65 123.95 62Z"/>
		<path fill="url(#Svg_gradient_head)" stroke="none" d="M97.1 87.4Q111.5 73.95 111.5 55 111.5 36.05 97.1 22.65 82.65 9.25 62.3 9.25 41.9 9.25 27.5 22.65 13.05 36.05 13.05 55 13.05 73.95 27.5 87.4 41.9 100.8 62.3 100.8 82.65 100.8 97.1 87.4Z"/>
		<path fill="#FFF" stroke="none" d="M94.45 48.45Q98.35 44.5 98.35 39 98.35 33.5 94.45 29.6 90.55 25.7 85.05 25.7 79.55 25.7 75.65 29.6 71.75 33.5 71.75 39 71.75 44.5 75.65 48.45 79.55 52.35 85.05 52.35 90.55 52.35 94.45 48.45Z"/>
		<path fill="#000" stroke="none" d="M89.6 43.55Q91.45 41.65 91.45 39 91.45 36.35 89.6 34.5 87.7 32.6 85.05 32.6 82.4 32.6 80.5 34.5 78.65 36.35 78.65 39 78.65 41.65 80.5 43.55 82.4 45.4 85.05 45.4 87.7 45.4 89.6 43.55Z"/>
		<path fill="#FFF" stroke="none" d="M48.2 48.45Q52.1 44.5 52.1 39 52.1 33.5 48.2 29.6 44.3 25.7 38.8 25.7 33.3 25.7 29.4 29.6 25.5 33.5 25.5 39 25.5 44.5 29.4 48.45 33.3 52.35 38.8 52.35 44.3 52.35 48.2 48.45Z"/>
		<path fill="#000" stroke="none" d="M43.35 43.55Q45.2 41.65 45.2 39 45.2 36.35 43.35 34.5 41.45 32.6 38.8 32.6 36.15 32.6 34.25 34.5 32.4 36.35 32.4 39 32.4 41.65 34.25 43.55 36.15 45.4 38.8 45.4 41.45 45.4 43.35 43.55Z"/>
		<path fill="#D39924" stroke="none" d="M49.85 75.5Q44.85 80.5 44.85 87.55 44.85 94.65 49.85 99.65 54.85 104.65 61.95 104.65 69.05 104.65 74 99.65 79 94.65 79 87.55 79 80.5 74 75.5 69.05 70.5 61.95 70.5 54.85 70.5 49.85 75.5Z"/>
	</g>
	<g id="svg_emoti_4" class="happy"  transform="translate(-61.95 -62.75)">
		<path fill="#FFCF24" stroke="none" d="M114.3 81.75L80 112.25 123.55 126.7 114.3 81.75Z"/>
		<path fill="#FFCF24" stroke="none" d="M123.95 62Q123.95 36.35 105.8 18.2 87.7 .05 62 .05 36.35 .05 18.2 18.2 .05 36.35 .05 62 .05 87.65 18.2 105.8 36.35 123.95 62 123.95 87.7 123.95 105.8 105.8 123.95 87.65 123.95 62Z"/>
		<path fill="url(#Svg_gradient_head)" stroke="none" d="M97.25 87.4Q111.65 73.95 111.65 55 111.65 36.05 97.25 22.65 82.8 9.25 62.45 9.25 42.05 9.25 27.65 22.65 13.2 36.05 13.2 55 13.2 73.95 27.65 87.4 42.05 100.8 62.45 100.8 82.8 100.8 97.25 87.4Z"/>
		<path fill="#D39924" stroke="none" d="M85.6 31.05Q84.15 31.15 83.2 32.25L73.65 43.1Q72.8 44.1 72.8 45.4 72.8 46.7 73.65 47.65L83.2 58.5Q84.2 59.7 85.8 59.7 87.05 59.7 88.1 58.8 89.15 57.85 89.25 56.45 89.35 55 88.4 53.9L80.85 45.35 88.4 36.8Q89.35 35.75 89.25 34.3 89.15 32.9 88.1 31.9 87 30.95 85.6 31.05Z"/>
		<path fill="#D39924" stroke="none" d="M50.3 43.1L40.75 32.25Q39.8 31.15 38.4 31.05 36.95 30.95 35.85 31.9 34.75 32.9 34.65 34.3 34.6 35.75 35.55 36.8L43.05 45.35 35.55 53.9Q34.6 55 34.65 56.45 34.75 57.85 35.85 58.8 36.85 59.7 38.15 59.7 39.7 59.7 40.75 58.5L50.3 47.65Q51.15 46.7 51.15 45.4 51.15 44.1 50.3 43.1Z"/>
		<path fill="#D39924" stroke="none" d="M89 98.15Q100.8 89.35 105.15 75.4L18.9 75.4Q23.25 89.35 35 98.15 47 107.1 62 107.1 77 107.1 89 98.15Z"/>
		<path fill="#F97370" stroke="none" d="M62 85.75Q54.15 85.75 48.55 91.35 42.95 96.95 42.95 104.8 42.95 112.7 48.55 118.3 54.1 123.9 62 123.9 69.9 123.9 75.5 118.3 81.1 112.7 81.1 104.8 81.1 96.9 75.5 91.35 69.9 85.75 62 85.75Z"/>
		<path fill="#F97370" stroke="none" d="M81.1 83.9L42.95 83.9 42.95 104.75 81.1 104.75 81.1 83.9Z"/>
	</g>
	<g id="svg_emoti_5" class="love"  transform="translate(-61.95 -62.75)">
		<path fill="#FFCF24" stroke="none" d="M114.55 81.25L80.25 111.7 123.8 126.2 114.55 81.25Z"/>
		<path fill="#FFCF24" stroke="none" d="M123.95 62Q123.95 36.3 105.8 18.2 87.65 .05 62 .05 36.3 .05 18.2 18.2 .05 36.3 .05 62 .05 87.65 18.2 105.8 36.3 123.95 62 123.95 87.65 123.95 105.8 105.8 123.95 87.65 123.95 62Z"/>
		<path fill="url(#Svg_gradient_head)" stroke="none" d="M97.15 87.3Q111.55 73.9 111.55 54.95 111.55 36 97.15 22.55 82.7 9.15 62.3 9.15 41.9 9.15 27.5 22.55 13.1 35.95 13.1 54.95 13.1 73.9 27.5 87.3 41.9 100.7 62.3 100.7 82.7 100.7 97.15 87.3Z"/>
		<path fill="#D39924" stroke="none" d="M89.85 75.8Q88.2 76.2 87.3 77.6 83.25 84 76.65 87.65 70.1 91.25 62.5 91.25 54.9 91.25 48.35 87.65 41.75 84 37.7 77.6 36.8 76.2 35.15 75.8 33.55 75.45 32.1 76.35 30.7 77.25 30.3 78.9 29.95 80.5 30.85 81.95 36 90.1 44.45 94.75 52.8 99.35 62.5 99.35 72.2 99.35 80.6 94.75 89 90.1 94.15 81.95 95.05 80.5 94.7 78.9 94.3 77.25 92.9 76.35 91.5 75.45 89.85 75.8Z"/>
		<path fill="#FC2722" stroke="none" d="M54.55 36.85Q54.75 34.55 53.6 32.5 52.45 30.35 50.3 29.3 47.4 27.85 44.35 28.9 41.25 29.9 39.8 32.8 39.15 34.1 39 35.7 38.95 34.25 38.2 32.8 36.75 29.9 33.65 28.9 30.6 27.9 27.7 29.35 25.55 30.4 24.4 32.55 23.3 34.55 23.45 36.9 23.6 39.5 25.65 43.05 29.55 49.8 39.05 56.7 48.5 49.75 52.4 43 54.55 39.3 54.55 36.85Z"/>
		<path fill="#FC2722" stroke="none" d="M101.1 36.85Q101.3 34.55 100.15 32.5 99 30.35 96.85 29.3 93.95 27.85 90.9 28.9 87.8 29.9 86.35 32.8 85.7 34.1 85.55 35.7 85.5 34.25 84.75 32.8 83.3 29.9 80.2 28.9 77.15 27.9 74.25 29.35 72.1 30.4 70.95 32.55 69.85 34.55 70 36.9 70 39.3 72.2 43.05 76.1 49.75 85.6 56.7 95.05 49.75 98.95 43 101.1 39.3 101.1 36.85Z"/>
	</g>
	<g id="svg_emoti_6" class="love"  transform="translate(-61.95 -62.75)">
		<path fill="#FFCF24" stroke="none" d="M113.85 79.6L79.55 110.05 123.1 124.5 113.85 79.6Z"/>
		<path fill="#FFCF24" stroke="none" d="M123.9 61.95Q123.9 36.25 105.75 18.15 87.6 0 61.95 0 36.25 0 18.15 18.15 0 36.25 0 61.95 0 87.6 18.15 105.75 36.25 123.9 61.95 123.9 87.6 123.9 105.75 105.75 123.9 87.6 123.9 61.95Z"/>
		<path fill="url(#Svg_gradient_head)" stroke="none" d="M97.15 87.3Q111.55 73.9 111.55 54.95 111.55 36 97.15 22.55 82.7 9.15 62.3 9.15 41.9 9.15 27.5 22.55 13.05 36 13.05 54.95 13.05 73.9 27.5 87.3 41.9 100.7 62.3 100.7 82.7 100.7 97.15 87.3Z"/>
		<path fill="#D39924" stroke="none" d="M88.5 37.2Q90.05 38.4 90.55 40.25 90.85 41.4 91.8 42.1 92.75 42.8 93.9 42.8L94.8 42.7Q96.2 42.35 96.9 41.1 97.65 39.85 97.25 38.45 96.15 34.3 92.75 31.65 89.35 29.05 85.05 29.05 80.75 29.05 77.35 31.65 73.95 34.3 72.8 38.45 72.45 39.85 73.15 41.1 73.85 42.35 75.25 42.7 76.65 43.1 77.9 42.35 79.15 41.65 79.5 40.25 80.05 38.35 81.55 37.2 83.1 36 85.05 36 86.95 36 88.5 37.2Z"/>
		<path fill="#FC2722" stroke="none" d="M99.3 74.95Q96.2 75.95 94.75 78.85 94.1 80.2 93.95 81.75 93.9 80.4 93.15 78.85 91.7 75.95 88.6 74.95 85.55 73.95 82.65 75.4 80.5 76.45 79.35 78.6 78.25 80.6 78.4 82.95 78.55 85.55 80.6 89.1 84.5 95.85 94 102.8 103.45 95.8 107.35 89.05 109.5 85.35 109.5 82.9 109.7 80.6 108.55 78.55 107.4 76.4 105.25 75.35 102.35 73.9 99.3 74.95Z"/>
		<path fill="#D39924" stroke="none" d="M56.5 77.9Q56.4 79.3 57.35 80.4L64.85 88.95 57.35 97.5Q56.4 98.55 56.5 100 56.55 101.45 57.65 102.4 58.65 103.25 59.95 103.25 61.5 103.25 62.55 102.05L72.1 91.2Q72.95 90.25 72.95 88.95 72.95 87.65 72.1 86.65L62.55 75.8Q61.6 74.7 60.2 74.6 58.75 74.55 57.65 75.5 56.55 76.45 56.5 77.9Z"/>
		<path fill="#D39924" stroke="none" d="M45.55 42.1Q46.45 42.8 47.65 42.8L48.55 42.7Q49.95 42.35 50.65 41.1 51.4 39.85 51 38.45 49.9 34.3 46.5 31.65 43.1 29.05 38.8 29.05 34.5 29.05 31.05 31.65 27.65 34.3 26.55 38.45 26.2 39.85 26.9 41.1 27.6 42.35 29 42.7 30.4 43.1 31.65 42.35 32.9 41.65 33.25 40.25 33.75 38.4 35.3 37.2 36.85 36 38.8 36 40.7 36 42.25 37.2 43.8 38.4 44.3 40.25 44.6 41.4 45.55 42.1Z"/>
	</g>
	<g id="svg_emoti_7"  class="normal"  transform="translate(-61.95 -62.75)">
		<path fill="#FFCF24" stroke="none" d="M113.6 82.25L79.3 112.7 122.8 127.15 113.6 82.25Z"/>
		<path fill="#FFCF24" stroke="none" d="M123.95 62Q123.95 36.3 105.8 18.2 87.65 .05 62 .05 36.35 .05 18.2 18.2 .05 36.3 .05 62 .05 87.65 18.2 105.8 36.35 123.95 62 123.95 87.65 123.95 105.8 105.8 123.95 87.65 123.95 62Z"/>
		<path fill="url(#Svg_gradient_head)" stroke="none" d="M97.15 87.3Q111.55 73.9 111.55 54.95 111.55 35.95 97.15 22.55 82.75 9.15 62.35 9.15 41.95 9.15 27.55 22.55 13.1 36 13.1 54.95 13.1 73.9 27.55 87.3 41.95 100.7 62.35 100.7 82.75 100.7 97.15 87.3Z"/>
		<path fill="#D39924" stroke="none" d="M89.35 75.8Q87.7 76.2 86.8 77.6 82.75 84 76.15 87.65 69.6 91.25 62 91.25 57.5 91.25 53.55 90 51.95 89.55 50.45 90.35 49 91.15 48.5 92.75 48 94.35 48.8 95.85 49.6 97.3 51.2 97.8 56.35 99.35 62 99.35 71.7 99.35 80.1 94.75 88.5 90.1 93.65 81.95 94.55 80.5 94.2 78.9 93.8 77.25 92.4 76.35 90.95 75.45 89.35 75.8Z"/>
		<path fill="#231F20" stroke="none" d="M113.45 44.35Q113.6 43.1 114.55 42.25 115.5 41.4 116.75 41.4L117.1 41.4Q118.5 41.4 119.45 40.4 120.45 39.45 120.45 38.05L120.45 34.25Q120.45 32.85 119.45 31.9 118.5 30.9 117.1 30.9L6.95 30.9Q5.55 30.9 4.6 31.9 3.6 32.85 3.6 34.25L3.6 38.05Q3.6 39.45 4.6 40.4 5.55 41.4 6.95 41.4L7.2 41.4Q8.5 41.4 9.4 42.25 10.35 43.1 10.5 44.35 11.75 53.4 18.65 59.45 25.6 65.55 34.85 65.55 44.25 65.55 51.25 59.25 58.2 53.05 59.25 43.8 59.35 42.8 60.15 42.1 60.95 41.4 61.95 41.4 63 41.4 63.8 42.1 64.6 42.8 64.7 43.8 65.75 53.05 72.7 59.25 79.7 65.55 89.1 65.55 98.35 65.55 105.3 59.45 112.2 53.35 113.45 44.35Z"/>
	</g>
	<g id="svg_emoti_8" class="normal"  transform="translate(-61.95 -62.75)">
		<path fill="#FFCF24" stroke="none" d="M113.55 80.1L79.25 110.55 122.8 125 113.55 80.1Z"/>
		<path fill="#FFCF24" stroke="none" d="M123.95 62Q123.95 36.35 105.8 18.2 87.65 .05 62 .05 36.35 .05 18.2 18.2 .05 36.35 .05 62 .05 87.7 18.2 105.8 36.35 123.95 62 123.95 87.65 123.95 105.8 105.8 123.95 87.7 123.95 62Z"/>
		<path fill="url(#Svg_gradient_head)" stroke="none" d="M97.15 87.4Q111.55 74 111.55 55.05 111.55 36.1 97.15 22.65 82.7 9.25 62.35 9.25 41.95 9.25 27.55 22.65 13.1 36.1 13.1 55.05 13.1 74 27.55 87.4 41.95 100.8 62.35 100.8 82.7 100.8 97.15 87.4Z"/>
		<path fill="#D39924" stroke="none" d="M86.55 84.15Q85.4 82.95 83.7 82.95L40.3 82.95Q38.6 82.95 37.45 84.15 36.25 85.35 36.25 87 36.25 88.7 37.45 89.85 38.6 91.05 40.3 91.05L83.7 91.05Q85.4 91.05 86.55 89.85 87.75 88.7 87.75 87 87.75 85.35 86.55 84.15Z"/>
		<path fill="#000" stroke="none" d="M104.8 42.5L118.25 42.5Q119.7 42.5 120.7 41.5 121.7 40.5 121.7 39.05 121.7 37.6 120.7 36.55 119.7 35.55 118.25 35.55L104.8 35.55Q103.35 35.55 102.35 36.55 101.35 37.6 101.35 39.05 101.35 40.5 102.35 41.5 103.4 42.5 104.8 42.5Z"/>
		<path fill="#000" stroke="none" d="M5.75 42.5L19.2 42.5Q20.65 42.5 21.65 41.5 22.65 40.5 22.65 39.05 22.65 37.6 21.65 36.55 20.65 35.55 19.2 35.55L5.75 35.55Q4.3 35.55 3.3 36.55 2.3 37.6 2.3 39.05 2.3 40.5 3.3 41.5 4.35 42.5 5.75 42.5Z"/>
		<path fill="#000" stroke="none" d="M55.85 41.5Q56.9 42.5 58.3 42.5L65.55 42.5Q67 42.5 68 41.5 69 40.5 69 39.05 69 37.6 68 36.55 67 35.55 65.55 35.55L58.3 35.55Q56.85 35.55 55.85 36.55 54.85 37.6 54.85 39.05 54.85 40.5 55.85 41.5Z"/>
		<path fill="#FFF" stroke="none" d="M99.4 25.9Q93.95 20.45 86.25 20.45 78.55 20.45 73.15 25.9 67.7 31.35 67.7 39.05 67.7 46.75 73.15 52.15 78.55 57.6 86.25 57.6 93.95 57.6 99.4 52.15 104.85 46.75 104.85 39.05 104.85 31.35 99.4 25.9Z"/>
		<path fill="#000" stroke="none" d="M90.8 43.5Q92.65 41.65 92.65 39 92.65 36.35 90.8 34.45 88.9 32.6 86.25 32.6 83.6 32.6 81.7 34.45 79.85 36.35 79.85 39 79.85 41.65 81.7 43.5 83.6 45.4 86.25 45.4 88.9 45.4 90.8 43.5Z"/>
		<path fill="#000" stroke="none" d="M102.65 22.6Q95.85 15.8 86.25 15.8 76.65 15.8 69.85 22.6 63.05 29.4 63.05 39 63.05 48.55 69.85 55.4 76.65 62.2 86.25 62.2 95.85 62.2 102.65 55.4 109.45 48.55 109.45 39 109.45 29.4 102.65 22.6M98.55 26.7Q103.65 31.8 103.65 39 103.65 46.2 98.55 51.3 93.45 56.4 86.25 56.4 79.05 56.4 73.95 51.3 68.85 46.2 68.85 39 68.85 31.8 73.95 26.7 79.05 21.55 86.25 21.55 93.45 21.55 98.55 26.7Z"/>
		<path fill="#FFF" stroke="none" d="M56.2 39.05Q56.2 31.35 50.75 25.9 45.35 20.45 37.65 20.45 29.95 20.45 24.5 25.9 19.05 31.35 19.05 39.05 19.05 46.75 24.5 52.15 29.95 57.6 37.65 57.6 45.35 57.6 50.75 52.15 56.2 46.75 56.2 39.05Z"/>
		<path fill="#000" stroke="none" d="M42.15 43.5Q44.05 41.65 44.05 39 44.05 36.35 42.15 34.45 40.3 32.6 37.65 32.6 35 32.6 33.1 34.45 31.25 36.35 31.25 39 31.25 41.65 33.1 43.5 35 45.4 37.65 45.4 40.3 45.4 42.15 43.5Z"/>
		<path fill="#000" stroke="none" d="M60.85 39Q60.85 29.4 54.05 22.6 47.25 15.8 37.65 15.8 28.05 15.8 21.25 22.6 14.45 29.4 14.45 39 14.45 48.55 21.25 55.4 28.05 62.2 37.65 62.2 47.25 62.2 54.05 55.4 60.85 48.55 60.85 39M49.95 26.7Q55.05 31.8 55.05 39 55.05 46.2 49.95 51.3 44.85 56.4 37.65 56.4 30.45 56.4 25.35 51.3 20.2 46.2 20.2 39 20.2 31.8 25.35 26.7 30.45 21.55 37.65 21.55 44.85 21.55 49.95 26.7Z"/>
	</g>
	<g id="svg_emoti_9" class="happy"  transform="translate(-61.95 -62.75)">
		<path fill="#FFCF24" stroke="none" d="M113.25 82.2L78.95 112.65 122.45 127.1 113.25 82.2Z"/>
		<path fill="#FFCF24" stroke="none" d="M123.95 62Q123.95 36.3 105.8 18.2 87.7 .05 62 .05 36.35 .05 18.2 18.2 .05 36.3 .05 62 .05 87.65 18.2 105.8 36.35 123.95 62 123.95 87.7 123.95 105.8 105.8 123.95 87.65 123.95 62Z"/>
		<path fill="url(#Svg_gradient_head)" stroke="none" d="M97.15 87.3Q111.55 73.9 111.55 54.95 111.55 36 97.15 22.55 82.7 9.15 62.3 9.15 41.9 9.15 27.5 22.55 13.1 35.95 13.1 54.95 13.1 73.9 27.5 87.3 41.9 100.7 62.3 100.7 82.7 100.7 97.15 87.3Z"/>
		<path fill="#D39924" stroke="none" d="M105.15 75.4Q107.2 68.7 107.2 61.95L16.85 61.95Q16.85 68.95 18.9 75.4 23.25 89.35 35 98.15 47 107.1 62 107.1 77 107.1 89 98.15 100.8 89.35 105.15 75.4Z"/>
		<path fill="#FFF" stroke="none" d="M105.15 75.4Q107.2 68.7 107.2 61.95L16.85 61.95Q16.85 68.95 18.9 75.4L105.15 75.4Z"/>
		<path fill="#FFF" stroke="none" d="M94.55 48.35Q98.45 44.45 98.45 38.95 98.45 33.45 94.55 29.5 90.6 25.6 85.1 25.6 79.6 25.6 75.7 29.5 71.8 33.45 71.8 38.95 71.8 44.45 75.7 48.35 79.6 52.25 85.1 52.25 90.6 52.25 94.55 48.35Z"/>
		<path fill="#000" stroke="none" d="M89.65 43.45Q91.5 41.6 91.5 38.95 91.5 36.3 89.65 34.4 87.75 32.55 85.1 32.55 82.45 32.55 80.6 34.4 78.7 36.3 78.7 38.95 78.7 41.6 80.6 43.45 82.5 45.35 85.1 45.35 87.75 45.35 89.65 43.45Z"/>
		<path fill="#FFF" stroke="none" d="M48.2 48.35Q52.1 44.45 52.1 38.95 52.1 33.45 48.2 29.5 44.3 25.6 38.8 25.6 33.3 25.6 29.4 29.5 25.5 33.45 25.5 38.95 25.5 44.45 29.4 48.35 33.3 52.25 38.8 52.25 44.3 52.25 48.2 48.35Z"/>
		<path fill="#000" stroke="none" d="M43.35 43.45Q45.2 41.6 45.2 38.95 45.2 36.3 43.35 34.4 41.45 32.55 38.8 32.55 36.15 32.55 34.3 34.4 32.4 36.3 32.4 38.95 32.4 41.6 34.3 43.45 36.2 45.35 38.8 45.35 41.45 45.35 43.35 43.45Z"/>
	</g>
</defs>
</svg>