<?xml version="1.0" encoding="utf-8"?>
<!-- Generator: Adobe Illustrator 22.1.0, SVG Export Plug-In . SVG Version: 6.00 Build 0)  -->
<svg version="1.1" id="Layer_1" xmlns="http://www.w3.org/2000/svg" xmlns:xlink="http://www.w3.org/1999/xlink" x="0px" y="0px"
	 viewBox="0 0 64 52" style="enable-background:new 0 0 64 52;" xml:space="preserve">
<style type="text/css">
	.st0{fill:#EFFF00;}
</style>
<g>
	<path d="M25.2,49.2c-0.5,0-1-0.2-1.4-0.6L3,28.8c-0.8-0.8-0.8-2-0.1-2.8l7-7.5c0.4-0.4,0.9-0.6,1.4-0.6c0,0,0,0,0.1,0
		c0.5,0,1,0.2,1.4,0.5l12,11.4l26-26.4c0.4-0.4,0.9-0.6,1.4-0.6c0.5,0,1,0.2,1.4,0.5l7.4,7.1c0.4,0.4,0.6,0.9,0.6,1.4
		c0,0.5-0.2,1.1-0.6,1.4L26.6,48.6C26.2,49,25.7,49.2,25.2,49.2z"/>
	<path class="st0" d="M52.2,4.8l7.4,7.1L25.2,47.2L4.4,27.4l7-7.5l13.5,12.7L52.2,4.8 M52.2,0.8c-1,0-2.1,0.4-2.9,1.2L24.8,27
		L14.2,17c-0.7-0.7-1.7-1.1-2.8-1.1c0,0-0.1,0-0.1,0c-1.1,0-2.1,0.5-2.8,1.3l-7,7.5c-1.5,1.6-1.4,4.1,0.1,5.6l20.8,19.8
		c0.8,0.7,1.8,1.1,2.8,1.1c1,0,2.1-0.4,2.9-1.2l34.5-35.3c0.7-0.8,1.2-1.8,1.1-2.9c0-1.1-0.5-2.1-1.2-2.8L55,1.9
		C54.2,1.2,53.2,0.8,52.2,0.8L52.2,0.8z"/>
</g>
</svg>
